<svg xmlns="http://www.w3.org/2000/svg" xmlns:xlink="http://www.w3.org/1999/xlink" viewBox="0 0 612.9 267.46"><defs><style>.cls-1{fill:none;}.cls-2{clip-path:url(#clip-path);}.cls-3{fill:#ef3b39;}.cls-4{font-size:85.32px;fill:#58595b;font-family:Galvji-Bold, Galvji;font-weight:700;}.cls-5{letter-spacing:0.2em;}.cls-6{font-size:21px;fill:#ef3d3a;font-family:Constantia;}.cls-7{letter-spacing:0.2em;}.cls-8{letter-spacing:0.22em;}.cls-9{letter-spacing:0.16em;}.cls-10{letter-spacing:0.22em;}.cls-11{letter-spacing:0.21em;}.cls-12{letter-spacing:0.14em;}.cls-13{letter-spacing:0.22em;}.cls-14{letter-spacing:0.15em;}.cls-15{letter-spacing:0.22em;}.cls-16{letter-spacing:0.22em;}</style><clipPath id="clip-path" transform="translate(0 0)"><rect class="cls-1" width="630.91" height="267.46"/></clipPath></defs><g id="Layer_2" data-name="Layer 2"><g id="Layer_1-2" data-name="Layer 1"><g id="Logo"><g class="cls-2"><polyline class="cls-3" points="166.51 135.88 338.15 135.88 338.15 130.74 252.33 116.21 166.51 124.93"/><polyline class="cls-3" points="166.51 108.3 252.33 95.01 338.15 116.61 338.15 124.08 252.33 106.99 166.51 117.6"/><polygon class="cls-3" points="166.51 101.09 252.33 85.18 338.15 110.07 338.15 103.67 252.33 74.43 166.51 92.25 166.51 101.09"/><polygon class="cls-3" points="166.51 84.7 252.33 66.15 338.15 96.1 338.15 90.06 252.33 58.33 166.51 77.21 166.51 84.7"/><polygon class="cls-3" points="166.51 69.73 252.33 48.5 338.15 83.36 338.15 75.54 252.33 39.78 166.51 61.57 166.51 69.73"/><polygon class="cls-3" points="166.51 55.42 252.33 30.39 338.15 71 338.15 61.57 252.33 20.56 166.51 45.78 166.51 55.42"/><polygon class="cls-3" points="251.44 0 166.51 29.16 166.51 39.78 252.33 11.85 338.15 58.33 338.15 48.27 251.44 0"/><polyline class="cls-3" points="343.01 135.88 464.39 135.88 464.39 132.24 403.7 121.97 343.01 128.13"/><polyline class="cls-3" points="343.01 116.38 403.7 106.97 464.39 122.25 464.39 127.53 403.7 115.45 343.01 122.95"/><polygon class="cls-3" points="343.01 111.28 403.7 100.02 464.39 117.63 464.39 113.1 403.7 92.42 343.01 105.02 343.01 111.28"/><polygon class="cls-3" points="343.01 99.68 403.7 86.56 464.39 107.75 464.39 103.48 403.7 81.03 343.01 94.39 343.01 99.68"/><polygon class="cls-3" points="343.01 89.09 403.7 74.08 464.39 98.73 464.39 93.2 403.7 67.91 343.01 83.33 343.01 89.09"/><polygon class="cls-3" points="343.01 78.98 403.7 61.28 464.39 90 464.39 83.33 403.7 54.32 343.01 72.16 343.01 78.98"/><polygon class="cls-3" points="343.01 67.92 403.7 48.16 464.39 81.03 464.39 73.92 403.07 39.78 343.01 60.41 343.01 67.92"/><g class="cls-2"><text class="cls-4" transform="translate(0 222.46)"><tspan class="cls-5">CONNECT</tspan><tspan x="555.28" y="0">S</tspan></text><text class="cls-6" transform="translate(159.26 262.2)"><tspan class="cls-7">P</tspan><tspan class="cls-8" x="16.45" y="0">RE-</tspan><tspan class="cls-9" x="63.37" y="0">F</tspan><tspan class="cls-10" x="78.01" y="0">AB</tspan><tspan class="cls-11" x="114" y="0"> </tspan><tspan class="cls-12" x="123.61" y="0">W</tspan><tspan class="cls-10" x="148.03" y="0">A</tspan><tspan class="cls-13" x="166.83" y="0">L</tspan><tspan class="cls-11" x="183.16" y="0">L</tspan><tspan class="cls-13" x="199.17" y="0"> </tspan><tspan class="cls-14" x="209.11" y="0">P</tspan><tspan class="cls-15" x="224.43" y="0">AN</tspan><tspan class="cls-16" x="263.6" y="0">EL</tspan><tspan x="296.79" y="0">S</tspan></text></g></g></g></g></g></svg>